<svg width="29" height="40" viewBox="0 0 29 40" fill="none" xmlns="http://www.w3.org/2000/svg">
<path fill-rule="evenodd" clip-rule="evenodd" d="M13.8325 1.89792C13.8324 1.89801 13.8327 1.89782 13.8325 1.89792L5.83366 5.89736L5.83255 5.89792C5.32288 6.15117 5.00045 6.67105 5.00005 7.24015V16.7636C4.99608 17.3335 5.31541 17.8564 5.82416 18.1132C5.82387 18.113 5.82445 18.1133 5.82416 18.1132L13.8237 22.1129C14.2462 22.3244 14.7438 22.3244 15.1663 22.113L23.1664 18.1129L23.1675 18.1124C23.6773 17.8591 23.9997 17.3391 24 16.7699V7.24042C23.9997 6.67121 23.6773 6.15121 23.1675 5.89792L23.1664 5.89736L15.1675 1.89792C15.1674 1.89782 15.1677 1.89801 15.1675 1.89792C14.7474 1.68935 14.2527 1.68934 13.8325 1.89792ZM13.3875 1.00238C14.0883 0.654153 14.9118 0.654153 15.6125 1.00238L15.6137 1.00293L23.6125 5.00238C23.6124 5.0023 23.6127 5.00247 23.6125 5.00238C24.4618 5.42464 24.9995 6.29138 25 7.23988V16.7701C24.9995 17.7186 24.4624 18.5853 23.6132 19.0076C23.613 19.0077 23.6134 19.0075 23.6132 19.0076L15.6138 23.0073C15.6138 23.0073 15.6138 23.0073 15.6138 23.0073C14.9097 23.3596 14.0806 23.3597 13.3764 23.0074C13.3764 23.0073 13.3765 23.0074 13.3764 23.0074L5.37644 19.0074L5.37506 19.0067C4.52685 18.5793 3.99413 17.7082 4.00005 16.7585V7.24015C4.00055 6.29169 4.53772 5.42496 5.38695 5.00268C5.38675 5.00278 5.38715 5.00258 5.38695 5.00268L13.3864 1.00294L13.3875 1.00238Z" fill="#414141"/>
<path fill-rule="evenodd" clip-rule="evenodd" d="M4.37321 5.93666C4.4967 5.68967 4.79704 5.58956 5.04403 5.71305L14.5004 10.4412L23.9568 5.71305C24.2038 5.58956 24.5041 5.68967 24.6276 5.93666C24.7511 6.18365 24.651 6.48398 24.404 6.60748L14.724 11.4475C14.5833 11.5179 14.4176 11.5179 14.2768 11.4475L4.59682 6.60748C4.34983 6.48398 4.24971 6.18365 4.37321 5.93666Z" fill="#414141"/>
<path fill-rule="evenodd" clip-rule="evenodd" d="M14.5 10.5C14.7761 10.5 15 10.7239 15 11V22.76C15 23.0361 14.7761 23.26 14.5 23.26C14.2239 23.26 14 23.0361 14 22.76V11C14 10.7239 14.2239 10.5 14.5 10.5Z" fill="#414141"/>
<path fill-rule="evenodd" clip-rule="evenodd" d="M9.0529 3.2765C9.17639 3.02951 9.47673 2.9294 9.72372 3.0529L19.7237 8.0529C19.9707 8.17639 20.0708 8.47673 19.9473 8.72372C19.8238 8.97071 19.5235 9.07082 19.2765 8.94732L9.2765 3.94732C9.02951 3.82383 8.9294 3.52349 9.0529 3.2765Z" fill="#414141"/>
<path d="M2.96213 37.08C2.63679 37.08 2.34879 37.0427 2.09813 36.968C1.84746 36.8933 1.63679 36.792 1.46613 36.664C1.29546 36.5307 1.15946 36.3787 1.05813 36.208C0.962125 36.0373 0.906125 35.8533 0.890125 35.656C0.884792 35.608 0.898125 35.5707 0.930125 35.544C0.967458 35.5173 1.01013 35.504 1.05813 35.504H1.45813C1.50613 35.504 1.54879 35.5147 1.58613 35.536C1.62879 35.5573 1.66079 35.6027 1.68213 35.672C1.74613 35.8853 1.88479 36.0613 2.09813 36.2C2.31146 36.3333 2.59679 36.4 2.95413 36.4C3.20479 36.4 3.43146 36.3627 3.63413 36.288C3.83679 36.208 3.99946 36.096 4.12213 35.952C4.24479 35.8027 4.30613 35.624 4.30613 35.416C4.30613 35.1013 4.19146 34.8587 3.96213 34.688C3.73813 34.512 3.43146 34.424 3.04213 34.424H2.46613C2.41279 34.424 2.37013 34.408 2.33813 34.376C2.30613 34.3387 2.29013 34.2933 2.29013 34.24V33.96C2.29013 33.9013 2.30613 33.856 2.33813 33.824C2.37013 33.7867 2.41279 33.768 2.46613 33.768H3.01013C3.34079 33.768 3.60746 33.696 3.81013 33.552C4.01813 33.408 4.12213 33.1787 4.12213 32.864C4.12213 32.688 4.06879 32.536 3.96213 32.408C3.86079 32.28 3.72479 32.1813 3.55413 32.112C3.38346 32.0373 3.19146 32 2.97813 32C2.65279 32 2.38079 32.0587 2.16213 32.176C1.94346 32.2933 1.80746 32.4827 1.75412 32.744C1.73813 32.8027 1.71413 32.8453 1.68213 32.872C1.65013 32.8933 1.61013 32.904 1.56213 32.904H1.13013C1.08213 32.904 1.03946 32.888 1.00213 32.856C0.970125 32.824 0.956792 32.784 0.962125 32.736C0.978125 32.5333 1.03413 32.3467 1.13013 32.176C1.22613 32 1.35679 31.848 1.52213 31.72C1.69279 31.592 1.90079 31.4933 2.14613 31.424C2.39146 31.3547 2.67146 31.32 2.98613 31.32C3.41813 31.32 3.77546 31.392 4.05813 31.536C4.34079 31.68 4.55413 31.8667 4.69813 32.096C4.84213 32.32 4.91413 32.5627 4.91413 32.824C4.91413 32.984 4.89279 33.1413 4.85013 33.296C4.81279 33.4507 4.74613 33.592 4.65013 33.72C4.55946 33.848 4.43413 33.96 4.27413 34.056C4.46613 34.1467 4.62079 34.264 4.73813 34.408C4.86079 34.5467 4.95146 34.704 5.01013 34.88C5.07413 35.0507 5.10613 35.2347 5.10613 35.432C5.10613 35.7573 5.01813 36.0427 4.84213 36.288C4.67146 36.5333 4.42613 36.728 4.10613 36.872C3.78613 37.0107 3.40479 37.08 2.96213 37.08ZM7.29888 37.08C7.03221 37.08 6.78954 37.0267 6.57088 36.92C6.35221 36.8133 6.17621 36.6693 6.04288 36.488C5.90954 36.3067 5.84288 36.1013 5.84288 35.872C5.84288 35.504 5.99221 35.2107 6.29088 34.992C6.58954 34.7733 6.97888 34.6293 7.45888 34.56L8.65088 34.392V34.16C8.65088 33.904 8.57621 33.704 8.42688 33.56C8.28288 33.416 8.04554 33.344 7.71488 33.344C7.47488 33.344 7.28021 33.392 7.13088 33.488C6.98688 33.584 6.88554 33.7067 6.82688 33.856C6.79488 33.936 6.73888 33.976 6.65888 33.976H6.29888C6.24021 33.976 6.19488 33.96 6.16288 33.928C6.13621 33.8907 6.12288 33.848 6.12288 33.8C6.12288 33.72 6.15221 33.6213 6.21088 33.504C6.27488 33.3867 6.37088 33.272 6.49888 33.16C6.62688 33.048 6.78954 32.9547 6.98688 32.88C7.18954 32.8 7.43488 32.76 7.72288 32.76C8.04288 32.76 8.31221 32.8027 8.53088 32.888C8.74954 32.968 8.92021 33.0773 9.04288 33.216C9.17088 33.3547 9.26154 33.512 9.31488 33.688C9.37354 33.864 9.40288 34.0427 9.40288 34.224V36.816C9.40288 36.8693 9.38421 36.9147 9.34688 36.952C9.31488 36.984 9.27221 37 9.21888 37H8.85088C8.79221 37 8.74688 36.984 8.71488 36.952C8.68288 36.9147 8.66688 36.8693 8.66688 36.816V36.472C8.59754 36.568 8.50421 36.664 8.38688 36.76C8.26954 36.8507 8.12288 36.928 7.94688 36.992C7.77088 37.0507 7.55488 37.08 7.29888 37.08ZM7.46688 36.48C7.68554 36.48 7.88554 36.4347 8.06688 36.344C8.24821 36.248 8.38954 36.1013 8.49088 35.904C8.59754 35.7067 8.65088 35.4587 8.65088 35.16V34.936L7.72288 35.072C7.34421 35.1253 7.05888 35.216 6.86688 35.344C6.67488 35.4667 6.57888 35.624 6.57888 35.816C6.57888 35.9653 6.62154 36.0907 6.70688 36.192C6.79754 36.288 6.90954 36.36 7.04288 36.408C7.18154 36.456 7.32288 36.48 7.46688 36.48ZM10.7369 37C10.6836 37 10.6383 36.984 10.6009 36.952C10.5689 36.9147 10.5529 36.8693 10.5529 36.816V33.024C10.5529 32.9707 10.5689 32.928 10.6009 32.896C10.6383 32.8587 10.6836 32.84 10.7369 32.84H11.1129C11.1663 32.84 11.2089 32.8587 11.2409 32.896C11.2783 32.928 11.2969 32.9707 11.2969 33.024V34.56H12.0249L13.1049 32.96C13.1316 32.9227 13.1609 32.8933 13.1929 32.872C13.2249 32.8507 13.2676 32.84 13.3209 32.84H13.7369C13.7849 32.84 13.8249 32.8507 13.8569 32.872C13.8889 32.8933 13.9049 32.9253 13.9049 32.968C13.9049 32.9787 13.8996 32.9947 13.8889 33.016C13.8836 33.032 13.8756 33.048 13.8649 33.064L12.6649 34.832L14.0249 36.768C14.0516 36.8 14.0649 36.8347 14.0649 36.872C14.0649 36.9147 14.0489 36.9467 14.0169 36.968C13.9903 36.9893 13.9529 37 13.9049 37H13.4169C13.3689 37 13.3289 36.9893 13.2969 36.968C13.2649 36.9467 13.2356 36.9173 13.2089 36.88L12.0329 35.208H11.2969V36.816C11.2969 36.8693 11.2783 36.9147 11.2409 36.952C11.2089 36.984 11.1663 37 11.1129 37H10.7369ZM16.002 37.08C15.7353 37.08 15.4927 37.0267 15.274 36.92C15.0553 36.8133 14.8793 36.6693 14.746 36.488C14.6127 36.3067 14.546 36.1013 14.546 35.872C14.546 35.504 14.6953 35.2107 14.994 34.992C15.2927 34.7733 15.682 34.6293 16.162 34.56L17.354 34.392V34.16C17.354 33.904 17.2793 33.704 17.13 33.56C16.986 33.416 16.7487 33.344 16.418 33.344C16.178 33.344 15.9833 33.392 15.834 33.488C15.69 33.584 15.5887 33.7067 15.53 33.856C15.498 33.936 15.442 33.976 15.362 33.976H15.002C14.9433 33.976 14.898 33.96 14.866 33.928C14.8393 33.8907 14.826 33.848 14.826 33.8C14.826 33.72 14.8553 33.6213 14.914 33.504C14.978 33.3867 15.074 33.272 15.202 33.16C15.33 33.048 15.4927 32.9547 15.69 32.88C15.8927 32.8 16.138 32.76 16.426 32.76C16.746 32.76 17.0153 32.8027 17.234 32.888C17.4527 32.968 17.6233 33.0773 17.746 33.216C17.874 33.3547 17.9647 33.512 18.018 33.688C18.0767 33.864 18.106 34.0427 18.106 34.224V36.816C18.106 36.8693 18.0873 36.9147 18.05 36.952C18.018 36.984 17.9753 37 17.922 37H17.554C17.4953 37 17.45 36.984 17.418 36.952C17.386 36.9147 17.37 36.8693 17.37 36.816V36.472C17.3007 36.568 17.2073 36.664 17.09 36.76C16.9727 36.8507 16.826 36.928 16.65 36.992C16.474 37.0507 16.258 37.08 16.002 37.08ZM16.17 36.48C16.3887 36.48 16.5887 36.4347 16.77 36.344C16.9513 36.248 17.0927 36.1013 17.194 35.904C17.3007 35.7067 17.354 35.4587 17.354 35.16V34.936L16.426 35.072C16.0473 35.1253 15.762 35.216 15.57 35.344C15.378 35.4667 15.282 35.624 15.282 35.816C15.282 35.9653 15.3247 36.0907 15.41 36.192C15.5007 36.288 15.6127 36.36 15.746 36.408C15.8847 36.456 16.026 36.48 16.17 36.48ZM20.7041 37.08C20.3894 37.08 20.1227 37.0427 19.9041 36.968C19.6907 36.888 19.5174 36.7893 19.3841 36.672C19.2561 36.5493 19.1627 36.424 19.1041 36.296C19.0454 36.1627 19.0134 36.04 19.0081 35.928C19.0081 35.88 19.0241 35.8427 19.0561 35.816C19.0881 35.784 19.1254 35.768 19.1681 35.768H19.5441C19.5921 35.768 19.6321 35.7813 19.6641 35.808C19.6961 35.8293 19.7201 35.8693 19.7361 35.928C19.8001 36.1307 19.9227 36.272 20.1041 36.352C20.2854 36.432 20.5067 36.472 20.7681 36.472C20.9387 36.472 21.0961 36.4507 21.2401 36.408C21.3841 36.36 21.4961 36.2853 21.5761 36.184C21.6614 36.0827 21.7041 35.9573 21.7041 35.808C21.7041 35.5893 21.6401 35.424 21.5121 35.312C21.3894 35.2 21.1974 35.144 20.9361 35.144H20.4961C20.4427 35.144 20.4001 35.128 20.3681 35.096C20.3361 35.064 20.3201 35.0213 20.3201 34.968V34.752C20.3201 34.704 20.3361 34.664 20.3681 34.632C20.4001 34.5947 20.4427 34.576 20.4961 34.576H20.8881C21.1067 34.576 21.2747 34.5333 21.3921 34.448C21.5094 34.3627 21.5681 34.2267 21.5681 34.04C21.5681 33.928 21.5414 33.8213 21.4881 33.72C21.4347 33.6187 21.3441 33.536 21.2161 33.472C21.0934 33.4027 20.9227 33.368 20.7041 33.368C20.3947 33.368 20.1761 33.4213 20.0481 33.528C19.9254 33.6293 19.8374 33.7813 19.7841 33.984C19.7627 34.0427 19.7361 34.0827 19.7041 34.104C19.6774 34.1253 19.6374 34.136 19.5841 34.136H19.2241C19.1761 34.136 19.1361 34.1227 19.1041 34.096C19.0721 34.0693 19.0561 34.032 19.0561 33.984C19.0614 33.824 19.0961 33.672 19.1601 33.528C19.2294 33.384 19.3307 33.2533 19.4641 33.136C19.6027 33.0187 19.7734 32.928 19.9761 32.864C20.1841 32.7947 20.4267 32.76 20.7041 32.76C21.1041 32.76 21.4187 32.8213 21.6481 32.944C21.8827 33.0667 22.0481 33.2187 22.1441 33.4C22.2454 33.576 22.2961 33.752 22.2961 33.928C22.2961 34.136 22.2614 34.3093 22.1921 34.448C22.1281 34.5867 22.0001 34.704 21.8081 34.8C22.0481 34.8907 22.2134 35.0267 22.3041 35.208C22.3947 35.3893 22.4427 35.6 22.4481 35.84C22.4534 36.1173 22.3787 36.3467 22.2241 36.528C22.0747 36.7093 21.8694 36.848 21.6081 36.944C21.3467 37.0347 21.0454 37.08 20.7041 37.08ZM23.5338 37C23.4805 37 23.4351 36.984 23.3978 36.952C23.3658 36.9147 23.3498 36.8693 23.3498 36.816V33.024C23.3498 32.9707 23.3658 32.928 23.3978 32.896C23.4351 32.8587 23.4805 32.84 23.5338 32.84H23.9178C23.9711 32.84 24.0138 32.8587 24.0458 32.896C24.0831 32.928 24.1018 32.9707 24.1018 33.024V34.2H24.9338C25.4778 34.2 25.8751 34.328 26.1258 34.584C26.3765 34.84 26.5018 35.1867 26.5018 35.624C26.5018 36.0933 26.3631 36.44 26.0858 36.664C25.8085 36.888 25.3925 37 24.8378 37H23.5338ZM24.0938 36.4H24.8618C25.1871 36.4 25.4245 36.344 25.5738 36.232C25.7231 36.1147 25.7978 35.912 25.7978 35.624C25.7978 35.3467 25.7258 35.1413 25.5818 35.008C25.4378 34.8693 25.1978 34.8 24.8618 34.8H24.0938V36.4ZM27.2538 37C27.2005 37 27.1551 36.984 27.1178 36.952C27.0858 36.9147 27.0698 36.8693 27.0698 36.816V33.024C27.0698 32.9707 27.0858 32.928 27.1178 32.896C27.1551 32.8587 27.2005 32.84 27.2538 32.84H27.6378C27.6911 32.84 27.7338 32.8587 27.7658 32.896C27.8031 32.928 27.8218 32.9707 27.8218 33.024V36.816C27.8218 36.8693 27.8031 36.9147 27.7658 36.952C27.7338 36.984 27.6911 37 27.6378 37H27.2538Z" fill="#414141"/>
</svg>
