<svg width="31" height="40" viewBox="0 0 31 40" fill="none" xmlns="http://www.w3.org/2000/svg">
<path fill-rule="evenodd" clip-rule="evenodd" d="M6 12C6 11.7239 6.22386 11.5 6.5 11.5H24.5C24.7761 11.5 25 11.7239 25 12C25 12.2761 24.7761 12.5 24.5 12.5H6.5C6.22386 12.5 6 12.2761 6 12Z" fill="#414141"/>
<path fill-rule="evenodd" clip-rule="evenodd" d="M6 6C6 5.72386 6.22386 5.5 6.5 5.5H24.5C24.7761 5.5 25 5.72386 25 6C25 6.27614 24.7761 6.5 24.5 6.5H6.5C6.22386 6.5 6 6.27614 6 6Z" fill="#414141"/>
<path fill-rule="evenodd" clip-rule="evenodd" d="M6 18C6 17.7239 6.22386 17.5 6.5 17.5H24.5C24.7761 17.5 25 17.7239 25 18C25 18.2761 24.7761 18.5 24.5 18.5H6.5C6.22386 18.5 6 18.2761 6 18Z" fill="#414141"/>
<path d="M1.02453 37C0.965865 37 0.920531 36.984 0.888531 36.952C0.856531 36.9147 0.840531 36.8693 0.840531 36.816V31.592C0.840531 31.5333 0.856531 31.488 0.888531 31.456C0.920531 31.4187 0.965865 31.4 1.02453 31.4H1.43253C1.4912 31.4 1.53653 31.4187 1.56853 31.456C1.60586 31.488 1.62453 31.5333 1.62453 31.592V33.8H2.52853L3.95253 31.528C3.9792 31.4853 4.01386 31.4533 4.05653 31.432C4.0992 31.4107 4.1552 31.4 4.22453 31.4H4.65653C4.7152 31.4 4.75786 31.416 4.78453 31.448C4.8112 31.48 4.82453 31.5173 4.82453 31.56C4.82453 31.592 4.8112 31.6267 4.78453 31.664L3.24853 34.112L4.93653 36.72C4.95253 36.7413 4.96053 36.7707 4.96053 36.808C4.96053 36.8613 4.94186 36.9067 4.90453 36.944C4.87253 36.9813 4.82986 37 4.77653 37H4.32053C4.26186 37 4.21653 36.9893 4.18453 36.968C4.15786 36.9413 4.13386 36.912 4.11253 36.88L2.56053 34.52H1.62453V36.816C1.62453 36.8693 1.60586 36.9147 1.56853 36.952C1.53653 36.984 1.4912 37 1.43253 37H1.02453ZM7.01372 37.08C6.74705 37.08 6.50439 37.0267 6.28572 36.92C6.06705 36.8133 5.89105 36.6693 5.75772 36.488C5.62439 36.3067 5.55772 36.1013 5.55772 35.872C5.55772 35.504 5.70705 35.2107 6.00572 34.992C6.30439 34.7733 6.69372 34.6293 7.17372 34.56L8.36572 34.392V34.16C8.36572 33.904 8.29105 33.704 8.14172 33.56C7.99772 33.416 7.76039 33.344 7.42972 33.344C7.18972 33.344 6.99505 33.392 6.84572 33.488C6.70172 33.584 6.60039 33.7067 6.54172 33.856C6.50972 33.936 6.45372 33.976 6.37372 33.976H6.01372C5.95505 33.976 5.90972 33.96 5.87772 33.928C5.85105 33.8907 5.83772 33.848 5.83772 33.8C5.83772 33.72 5.86705 33.6213 5.92572 33.504C5.98972 33.3867 6.08572 33.272 6.21372 33.16C6.34172 33.048 6.50439 32.9547 6.70172 32.88C6.90439 32.8 7.14972 32.76 7.43772 32.76C7.75772 32.76 8.02705 32.8027 8.24572 32.888C8.46439 32.968 8.63505 33.0773 8.75772 33.216C8.88572 33.3547 8.97639 33.512 9.02972 33.688C9.08839 33.864 9.11772 34.0427 9.11772 34.224V36.816C9.11772 36.8693 9.09905 36.9147 9.06172 36.952C9.02972 36.984 8.98705 37 8.93372 37H8.56572C8.50705 37 8.46172 36.984 8.42972 36.952C8.39772 36.9147 8.38172 36.8693 8.38172 36.816V36.472C8.31239 36.568 8.21905 36.664 8.10172 36.76C7.98439 36.8507 7.83772 36.928 7.66172 36.992C7.48572 37.0507 7.26972 37.08 7.01372 37.08ZM7.18172 36.48C7.40039 36.48 7.60039 36.4347 7.78172 36.344C7.96305 36.248 8.10439 36.1013 8.20572 35.904C8.31239 35.7067 8.36572 35.4587 8.36572 35.16V34.936L7.43772 35.072C7.05905 35.1253 6.77372 35.216 6.58172 35.344C6.38972 35.4667 6.29372 35.624 6.29372 35.816C6.29372 35.9653 6.33639 36.0907 6.42172 36.192C6.51239 36.288 6.62439 36.36 6.75772 36.408C6.89639 36.456 7.03772 36.48 7.18172 36.48ZM11.5398 37C11.4864 37 11.4411 36.984 11.4038 36.952C11.3718 36.9147 11.3558 36.8693 11.3558 36.816V33.48H9.96378C9.91045 33.48 9.86511 33.464 9.82778 33.432C9.79578 33.3947 9.77978 33.3493 9.77978 33.296V33.024C9.77978 32.9707 9.79578 32.928 9.82778 32.896C9.86511 32.8587 9.91045 32.84 9.96378 32.84H13.4838C13.5371 32.84 13.5798 32.8587 13.6118 32.896C13.6491 32.928 13.6678 32.9707 13.6678 33.024V33.296C13.6678 33.3493 13.6491 33.3947 13.6118 33.432C13.5798 33.464 13.5371 33.48 13.4838 33.48H12.0918V36.816C12.0918 36.8693 12.0758 36.9147 12.0438 36.952C12.0118 36.984 11.9664 37 11.9078 37H11.5398ZM15.5215 37.08C15.2549 37.08 15.0122 37.0267 14.7935 36.92C14.5749 36.8133 14.3989 36.6693 14.2655 36.488C14.1322 36.3067 14.0655 36.1013 14.0655 35.872C14.0655 35.504 14.2149 35.2107 14.5135 34.992C14.8122 34.7733 15.2015 34.6293 15.6815 34.56L16.8735 34.392V34.16C16.8735 33.904 16.7989 33.704 16.6495 33.56C16.5055 33.416 16.2682 33.344 15.9375 33.344C15.6975 33.344 15.5029 33.392 15.3535 33.488C15.2095 33.584 15.1082 33.7067 15.0495 33.856C15.0175 33.936 14.9615 33.976 14.8815 33.976H14.5215C14.4629 33.976 14.4175 33.96 14.3855 33.928C14.3589 33.8907 14.3455 33.848 14.3455 33.8C14.3455 33.72 14.3749 33.6213 14.4335 33.504C14.4975 33.3867 14.5935 33.272 14.7215 33.16C14.8495 33.048 15.0122 32.9547 15.2095 32.88C15.4122 32.8 15.6575 32.76 15.9455 32.76C16.2655 32.76 16.5349 32.8027 16.7535 32.888C16.9722 32.968 17.1429 33.0773 17.2655 33.216C17.3935 33.3547 17.4842 33.512 17.5375 33.688C17.5962 33.864 17.6255 34.0427 17.6255 34.224V36.816C17.6255 36.8693 17.6069 36.9147 17.5695 36.952C17.5375 36.984 17.4949 37 17.4415 37H17.0735C17.0149 37 16.9695 36.984 16.9375 36.952C16.9055 36.9147 16.8895 36.8693 16.8895 36.816V36.472C16.8202 36.568 16.7269 36.664 16.6095 36.76C16.4922 36.8507 16.3455 36.928 16.1695 36.992C15.9935 37.0507 15.7775 37.08 15.5215 37.08ZM15.6895 36.48C15.9082 36.48 16.1082 36.4347 16.2895 36.344C16.4709 36.248 16.6122 36.1013 16.7135 35.904C16.8202 35.7067 16.8735 35.4587 16.8735 35.16V34.936L15.9455 35.072C15.5669 35.1253 15.2815 35.216 15.0895 35.344C14.8975 35.4667 14.8015 35.624 14.8015 35.816C14.8015 35.9653 14.8442 36.0907 14.9295 36.192C15.0202 36.288 15.1322 36.36 15.2655 36.408C15.4042 36.456 15.5455 36.48 15.6895 36.48ZM18.5756 37C18.5223 37 18.4769 36.9813 18.4396 36.944C18.4023 36.9067 18.3836 36.8613 18.3836 36.808V36.512C18.3836 36.4 18.4396 36.3413 18.5516 36.336C18.7169 36.3307 18.8556 36.2533 18.9676 36.104C19.0796 35.9493 19.1649 35.7067 19.2236 35.376C19.2823 35.04 19.3116 34.5973 19.3116 34.048V33.024C19.3116 32.9707 19.3276 32.928 19.3596 32.896C19.3969 32.8587 19.4423 32.84 19.4956 32.84H22.0396C22.0929 32.84 22.1356 32.8587 22.1676 32.896C22.2049 32.928 22.2236 32.9707 22.2236 33.024V36.816C22.2236 36.8693 22.2049 36.9147 22.1676 36.952C22.1356 36.984 22.0929 37 22.0396 37H21.6556C21.6023 37 21.5596 36.984 21.5276 36.952C21.4956 36.9147 21.4796 36.8693 21.4796 36.816V33.48H20.0396V34.136C20.0396 34.648 20.0103 35.088 19.9516 35.456C19.8929 35.8187 19.8023 36.1147 19.6796 36.344C19.5623 36.568 19.4103 36.7333 19.2236 36.84C19.0423 36.9467 18.8263 37 18.5756 37ZM25.1202 37.08C24.7149 37.08 24.3762 37.0027 24.1042 36.848C23.8322 36.6933 23.6242 36.48 23.4802 36.208C23.3362 35.9307 23.2562 35.616 23.2402 35.264C23.2349 35.1733 23.2322 35.0587 23.2322 34.92C23.2322 34.776 23.2349 34.6613 23.2402 34.576C23.2562 34.2187 23.3362 33.904 23.4802 33.632C23.6296 33.36 23.8402 33.1467 24.1122 32.992C24.3842 32.8373 24.7202 32.76 25.1202 32.76C25.5202 32.76 25.8562 32.8373 26.1282 32.992C26.4002 33.1467 26.6082 33.36 26.7522 33.632C26.9016 33.904 26.9842 34.2187 27.0002 34.576C27.0056 34.6613 27.0082 34.776 27.0082 34.92C27.0082 35.0587 27.0056 35.1733 27.0002 35.264C26.9842 35.616 26.9042 35.9307 26.7602 36.208C26.6162 36.48 26.4082 36.6933 26.1362 36.848C25.8642 37.0027 25.5256 37.08 25.1202 37.08ZM25.1202 36.464C25.4509 36.464 25.7149 36.36 25.9122 36.152C26.1096 35.9387 26.2162 35.6293 26.2322 35.224C26.2376 35.144 26.2402 35.0427 26.2402 34.92C26.2402 34.7973 26.2376 34.696 26.2322 34.616C26.2162 34.2107 26.1096 33.904 25.9122 33.696C25.7149 33.4827 25.4509 33.376 25.1202 33.376C24.7896 33.376 24.5229 33.4827 24.3202 33.696C24.1229 33.904 24.0189 34.2107 24.0082 34.616C24.0029 34.696 24.0002 34.7973 24.0002 34.92C24.0002 35.0427 24.0029 35.144 24.0082 35.224C24.0189 35.6293 24.1229 35.9387 24.3202 36.152C24.5229 36.36 24.7896 36.464 25.1202 36.464ZM28.194 37C28.1406 37 28.0953 36.984 28.058 36.952C28.026 36.9147 28.01 36.8693 28.01 36.816V33.024C28.01 32.9707 28.026 32.928 28.058 32.896C28.0953 32.8587 28.1406 32.84 28.194 32.84H30.586C30.6393 32.84 30.682 32.8587 30.714 32.896C30.746 32.928 30.762 32.9707 30.762 33.024V33.296C30.762 33.3493 30.746 33.3947 30.714 33.432C30.682 33.464 30.6393 33.48 30.586 33.48H28.754V36.816C28.754 36.8693 28.738 36.9147 28.706 36.952C28.674 36.984 28.6313 37 28.578 37H28.194Z" fill="#414141"/>
</svg>
